<svg xmlns="http://www.w3.org/2000/svg" width="1440" height="900"><path d="M785,513L785,588L862,521Z" fill="#408480" stroke="#408480" stroke-width="1.51"/><path d="M785,588L867,594L862,521Z" fill="#337b79" stroke="#337b79" stroke-width="1.51"/><path d="M785,588L787,674L867,594Z" fill="#2f7b79" stroke="#2f7b79" stroke-width="1.51"/><path d="M862,521L776,413L785,513Z" fill="#478984" stroke="#478984" stroke-width="1.51"/><path d="M952,610L948,495L862,521Z" fill="#2c7674" stroke="#2c7674" stroke-width="1.51"/><path d="M896,422L776,413L862,521Z" fill="#387e7b" stroke="#387e7b" stroke-width="1.51"/><path d="M658,499L667,620L785,588Z" fill="#277372" stroke="#277372" stroke-width="1.51"/><path d="M785,588L667,620L787,674Z" fill="#277777" stroke="#277777" stroke-width="1.51"/><path d="M867,594L952,610L862,521Z" fill="#267271" stroke="#267271" stroke-width="1.51"/><path d="M866,691L952,610L867,594Z" fill="#1e7274" stroke="#1e7274" stroke-width="1.51"/><path d="M787,674L866,691L867,594Z" fill="#2b7d7e" stroke="#2b7d7e" stroke-width="1.51"/><path d="M948,495L896,422L862,521Z" fill="#367c7a" stroke="#367c7a" stroke-width="1.51"/><path d="M658,499L785,588L785,513Z" fill="#3a7f7c" stroke="#3a7f7c" stroke-width="1.51"/><path d="M776,413L658,499L785,513Z" fill="#3c817d" stroke="#3c817d" stroke-width="1.51"/><path d="M948,495L966,426L896,422Z" fill="#247171" stroke="#247171" stroke-width="1.51"/><path d="M685,307L659,400L776,413Z" fill="#1e7273" stroke="#1e7273" stroke-width="1.51"/><path d="M1056,515L966,426L948,495Z" fill="#2b7877" stroke="#2b7877" stroke-width="1.51"/><path d="M952,610L1056,515L948,495Z" fill="#257374" stroke="#257374" stroke-width="1.51"/><path d="M866,691L999,678L952,610Z" fill="#107174" stroke="#107174" stroke-width="1.51"/><path d="M776,413L659,400L658,499Z" fill="#297473" stroke="#297473" stroke-width="1.51"/><path d="M861,298L776,413L896,422Z" fill="#297777" stroke="#297777" stroke-width="1.51"/><path d="M667,620L656,716L787,674Z" fill="#1e787b" stroke="#1e787b" stroke-width="1.51"/><path d="M787,674L860,798L866,691Z" fill="#328384" stroke="#328384" stroke-width="1.51"/><path d="M866,691L956,789L999,678Z" fill="#197679" stroke="#197679" stroke-width="1.51"/><path d="M566,705L656,716L667,620Z" fill="#067377" stroke="#067377" stroke-width="1.51"/><path d="M1054,614L1056,515L952,610Z" fill="#146f72" stroke="#146f72" stroke-width="1.51"/><path d="M658,499L583,596L667,620Z" fill="#186b6c" stroke="#186b6c" stroke-width="1.51"/><path d="M582,390L583,512L658,499Z" fill="#277676" stroke="#277676" stroke-width="1.51"/><path d="M583,512L583,596L658,499Z" fill="#267575" stroke="#267575" stroke-width="1.51"/><path d="M999,678L1054,614L952,610Z" fill="#076e72" stroke="#076e72" stroke-width="1.51"/><path d="M768,804L860,798L787,674Z" fill="#3f8481" stroke="#3f8481" stroke-width="1.51"/><path d="M984,297L861,298L896,422Z" fill="#197577" stroke="#197577" stroke-width="1.51"/><path d="M984,297L896,422L966,426Z" fill="#0c696b" stroke="#0c696b" stroke-width="1.51"/><path d="M656,716L768,804L787,674Z" fill="#2f7f7f" stroke="#2f7f7f" stroke-width="1.51"/><path d="M861,298L763,294L776,413Z" fill="#348484" stroke="#348484" stroke-width="1.51"/><path d="M1056,515L1048,411L966,426Z" fill="#217577" stroke="#217577" stroke-width="1.51"/><path d="M860,798L956,789L866,691Z" fill="#2e7978" stroke="#2e7978" stroke-width="1.51"/><path d="M999,678L1048,725L1054,614Z" fill="#06787e" stroke="#06787e" stroke-width="1.51"/><path d="M763,294L685,307L776,413Z" fill="#277c7e" stroke="#277c7e" stroke-width="1.51"/><path d="M659,400L582,390L658,499Z" fill="#186b6d" stroke="#186b6d" stroke-width="1.51"/><path d="M685,307L582,390L659,400Z" fill="#086a6d" stroke="#086a6d" stroke-width="1.51"/><path d="M458,574L566,705L583,596Z" fill="#077378" stroke="#077378" stroke-width="1.51"/><path d="M956,789L1048,725L999,678Z" fill="#17777b" stroke="#17777b" stroke-width="1.51"/><path d="M583,596L566,705L667,620Z" fill="#076f72" stroke="#076f72" stroke-width="1.51"/><path d="M656,716L674,829L768,804Z" fill="#317674" stroke="#317674" stroke-width="1.51"/><path d="M458,574L583,596L583,512Z" fill="#1e7779" stroke="#1e7779" stroke-width="1.51"/><path d="M1048,411L984,297L966,426Z" fill="#076c6f" stroke="#076c6f" stroke-width="1.51"/><path d="M861,298L762,184L763,294Z" fill="#378486" stroke="#378486" stroke-width="1.51"/><path d="M571,803L674,829L656,716Z" fill="#256f6f" stroke="#256f6f" stroke-width="1.51"/><path d="M862,922L946,893L860,798Z" fill="#2c6e70" stroke="#2c6e70" stroke-width="1.51"/><path d="M946,893L1057,790L956,789Z" fill="#266d6e" stroke="#266d6e" stroke-width="1.51"/><path d="M956,789L1057,790L1048,725Z" fill="#237577" stroke="#237577" stroke-width="1.51"/><path d="M1187,685L1154,595L1054,614Z" fill="#0b7a7f" stroke="#0b7a7f" stroke-width="1.51"/><path d="M1054,614L1154,595L1056,515Z" fill="#17777a" stroke="#17777a" stroke-width="1.51"/><path d="M946,893L956,789L860,798Z" fill="#2c6f6f" stroke="#2c6f6f" stroke-width="1.51"/><path d="M1187,685L1054,614L1048,725Z" fill="#057f86" stroke="#057f86" stroke-width="1.51"/><path d="M1056,515L1175,487L1048,411Z" fill="#2b8183" stroke="#2b8183" stroke-width="1.51"/><path d="M1048,411L1051,291L984,297Z" fill="#06777c" stroke="#06777c" stroke-width="1.51"/><path d="M884,178L762,184L861,298Z" fill="#347b7f" stroke="#347b7f" stroke-width="1.51"/><path d="M1193,312L1051,291L1048,411Z" fill="#067d83" stroke="#067d83" stroke-width="1.51"/><path d="M566,705L571,803L656,716Z" fill="#1b7679" stroke="#1b7679" stroke-width="1.51"/><path d="M1154,595L1175,487L1056,515Z" fill="#2b8384" stroke="#2b8384" stroke-width="1.51"/><path d="M455,512L458,574L583,512Z" fill="#2a8183" stroke="#2a8183" stroke-width="1.51"/><path d="M566,705L466,724L571,803Z" fill="#1d7d81" stroke="#1d7d81" stroke-width="1.51"/><path d="M862,922L860,798L768,804Z" fill="#3a7978" stroke="#3a7978" stroke-width="1.51"/><path d="M449,407L455,512L583,512Z" fill="#2d8485" stroke="#2d8485" stroke-width="1.51"/><path d="M685,307L560,289L582,390Z" fill="#067378" stroke="#067378" stroke-width="1.51"/><path d="M582,390L449,407L583,512Z" fill="#1c7779" stroke="#1c7779" stroke-width="1.51"/><path d="M648,221L560,289L685,307Z" fill="#0f7378" stroke="#0f7378" stroke-width="1.51"/><path d="M648,221L685,307L763,294Z" fill="#21797d" stroke="#21797d" stroke-width="1.51"/><path d="M884,178L861,298L991,211Z" fill="#247278" stroke="#247278" stroke-width="1.51"/><path d="M762,184L648,221L763,294Z" fill="#2b777c" stroke="#2b777c" stroke-width="1.51"/><path d="M758,926L862,922L768,804Z" fill="#3a7879" stroke="#3a7879" stroke-width="1.51"/><path d="M694,906L768,804L674,829Z" fill="#307172" stroke="#307172" stroke-width="1.51"/><path d="M571,883L694,906L674,829Z" fill="#1f676a" stroke="#1f676a" stroke-width="1.51"/><path d="M991,211L861,298L984,297Z" fill="#167378" stroke="#167378" stroke-width="1.51"/><path d="M1051,291L991,211L984,297Z" fill="#11767d" stroke="#11767d" stroke-width="1.51"/><path d="M694,906L758,926L768,804Z" fill="#307173" stroke="#307173" stroke-width="1.51"/><path d="M1155,784L1048,725L1057,790Z" fill="#247d80" stroke="#247d80" stroke-width="1.51"/><path d="M1155,784L1187,685L1048,725Z" fill="#1c8388" stroke="#1c8388" stroke-width="1.51"/><path d="M1154,595L1276,599L1175,487Z" fill="#2c7979" stroke="#2c7979" stroke-width="1.51"/><path d="M1175,487L1187,413L1048,411Z" fill="#217c7f" stroke="#217c7f" stroke-width="1.51"/><path d="M1051,291L1047,187L991,211Z" fill="#18747b" stroke="#18747b" stroke-width="1.51"/><path d="M1274,477L1187,413L1175,487Z" fill="#337c7c" stroke="#337c7c" stroke-width="1.51"/><path d="M458,574L466,724L566,705Z" fill="#067e85" stroke="#067e85" stroke-width="1.51"/><path d="M571,803L571,883L674,829Z" fill="#236d6f" stroke="#236d6f" stroke-width="1.51"/><path d="M560,289L449,407L582,390Z" fill="#06767b" stroke="#06767b" stroke-width="1.51"/><path d="M363,618L466,724L458,574Z" fill="#10787e" stroke="#10787e" stroke-width="1.51"/><path d="M363,691L445,786L466,724Z" fill="#207e86" stroke="#207e86" stroke-width="1.51"/><path d="M1091,905L1155,784L1057,790Z" fill="#28787c" stroke="#28787c" stroke-width="1.51"/><path d="M669,1015L773,980L758,926Z" fill="#2c6e72" stroke="#2c6e72" stroke-width="1.51"/><path d="M474,905L571,883L571,803Z" fill="#207176" stroke="#207176" stroke-width="1.51"/><path d="M1155,195L1047,187L1051,291Z" fill="#197981" stroke="#197981" stroke-width="1.51"/><path d="M962,87L861,85L884,178Z" fill="#2d7f83" stroke="#2d7f83" stroke-width="1.51"/><path d="M758,926L773,980L862,922Z" fill="#377679" stroke="#377679" stroke-width="1.51"/><path d="M984,1025L1091,905L946,893Z" fill="#18676e" stroke="#18676e" stroke-width="1.51"/><path d="M669,1015L758,926L694,906Z" fill="#276b70" stroke="#276b70" stroke-width="1.51"/><path d="M1187,413L1193,312L1048,411Z" fill="#0f787c" stroke="#0f787c" stroke-width="1.51"/><path d="M1297,376L1193,312L1187,413Z" fill="#237577" stroke="#237577" stroke-width="1.51"/><path d="M466,724L445,786L571,803Z" fill="#267e82" stroke="#267e82" stroke-width="1.51"/><path d="M362,516L458,574L455,512Z" fill="#2d7e82" stroke="#2d7e82" stroke-width="1.51"/><path d="M762,184L675,84L648,221Z" fill="#2a767b" stroke="#2a767b" stroke-width="1.51"/><path d="M543,180L460,276L560,289Z" fill="#157b84" stroke="#157b84" stroke-width="1.51"/><path d="M884,178L782,109L762,184Z" fill="#3d8487" stroke="#3d8487" stroke-width="1.51"/><path d="M861,85L782,109L884,178Z" fill="#398588" stroke="#398588" stroke-width="1.51"/><path d="M946,893L1091,905L1057,790Z" fill="#206e72" stroke="#206e72" stroke-width="1.51"/><path d="M855,1002L946,893L862,922Z" fill="#286b71" stroke="#286b71" stroke-width="1.51"/><path d="M543,180L560,289L648,221Z" fill="#187279" stroke="#187279" stroke-width="1.51"/><path d="M560,289L460,276L449,407Z" fill="#058188" stroke="#058188" stroke-width="1.51"/><path d="M773,980L855,1002L862,922Z" fill="#337376" stroke="#337376" stroke-width="1.51"/><path d="M1187,685L1276,599L1154,595Z" fill="#1f7577" stroke="#1f7577" stroke-width="1.51"/><path d="M1283,699L1276,599L1187,685Z" fill="#27797a" stroke="#27797a" stroke-width="1.51"/><path d="M1283,699L1187,685L1256,808Z" fill="#2f7d7e" stroke="#2f7d7e" stroke-width="1.51"/><path d="M374,419L455,512L449,407Z" fill="#267a7e" stroke="#267a7e" stroke-width="1.51"/><path d="M374,419L362,516L455,512Z" fill="#348083" stroke="#348083" stroke-width="1.51"/><path d="M1276,599L1274,477L1175,487Z" fill="#3c7f7c" stroke="#3c7f7c" stroke-width="1.51"/><path d="M362,516L363,618L458,574Z" fill="#22757a" stroke="#22757a" stroke-width="1.51"/><path d="M675,84L543,180L648,221Z" fill="#1e7278" stroke="#1e7278" stroke-width="1.51"/><path d="M369,325L374,419L449,407Z" fill="#157178" stroke="#157178" stroke-width="1.51"/><path d="M962,87L884,178L991,211Z" fill="#217278" stroke="#217278" stroke-width="1.51"/><path d="M782,109L675,84L762,184Z" fill="#358386" stroke="#358386" stroke-width="1.51"/><path d="M363,618L363,691L466,724Z" fill="#157c84" stroke="#157c84" stroke-width="1.51"/><path d="M349,817L363,691L276,777Z" fill="#2d747b" stroke="#2d747b" stroke-width="1.51"/><path d="M1060,106L962,87L1047,187Z" fill="#1f7c83" stroke="#1f7c83" stroke-width="1.51"/><path d="M1047,187L962,87L991,211Z" fill="#1e747b" stroke="#1e747b" stroke-width="1.51"/><path d="M1383,407L1297,376L1274,477Z" fill="#2b6f6e" stroke="#2b6f6e" stroke-width="1.51"/><path d="M1256,808L1187,685L1155,784Z" fill="#2f7d7d" stroke="#2f7d7d" stroke-width="1.51"/><path d="M773,980L762,1126L855,1002Z" fill="#377679" stroke="#377679" stroke-width="1.51"/><path d="M584,989L669,1015L694,906Z" fill="#1a646a" stroke="#1a646a" stroke-width="1.51"/><path d="M584,989L694,906L571,883Z" fill="#18656c" stroke="#18656c" stroke-width="1.51"/><path d="M1193,312L1155,195L1051,291Z" fill="#158189" stroke="#158189" stroke-width="1.51"/><path d="M1262,195L1155,195L1193,312Z" fill="#28797f" stroke="#28797f" stroke-width="1.51"/><path d="M744,-28L675,84L782,109Z" fill="#3b9492" stroke="#3b9492" stroke-width="1.51"/><path d="M445,786L474,905L571,803Z" fill="#27787c" stroke="#27787c" stroke-width="1.51"/><path d="M361,898L474,905L445,786Z" fill="#26737a" stroke="#26737a" stroke-width="1.51"/><path d="M474,905L584,989L571,883Z" fill="#196c74" stroke="#196c74" stroke-width="1.51"/><path d="M1091,905L1173,904L1155,784Z" fill="#25757b" stroke="#25757b" stroke-width="1.51"/><path d="M1179,1020L1173,904L1091,905Z" fill="#1f717a" stroke="#1f717a" stroke-width="1.51"/><path d="M976,1110L984,1025L876,1129Z" fill="#1b656b" stroke="#1b656b" stroke-width="1.51"/><path d="M855,1002L984,1025L946,893Z" fill="#1f666c" stroke="#1f666c" stroke-width="1.51"/><path d="M460,276L369,325L449,407Z" fill="#117c83" stroke="#117c83" stroke-width="1.51"/><path d="M374,419L256,490L362,516Z" fill="#34797d" stroke="#34797d" stroke-width="1.51"/><path d="M381,219L369,325L460,276Z" fill="#1a7c86" stroke="#1a7c86" stroke-width="1.51"/><path d="M1155,195L1060,106L1047,187Z" fill="#1f7d86" stroke="#1f7d86" stroke-width="1.51"/><path d="M1173,904L1256,808L1155,784Z" fill="#317677" stroke="#317677" stroke-width="1.51"/><path d="M1274,477L1297,376L1187,413Z" fill="#2c7371" stroke="#2c7371" stroke-width="1.51"/><path d="M1368,508L1274,477L1276,599Z" fill="#3c7a77" stroke="#3c7a77" stroke-width="1.51"/><path d="M543,180L449,179L460,276Z" fill="#1c7a84" stroke="#1c7a84" stroke-width="1.51"/><path d="M472,74L449,179L543,180Z" fill="#20838b" stroke="#20838b" stroke-width="1.51"/><path d="M1297,376L1290,313L1193,312Z" fill="#29797a" stroke="#29797a" stroke-width="1.51"/><path d="M1081,4L981,12L1060,106Z" fill="#2a9395" stroke="#2a9395" stroke-width="1.51"/><path d="M363,691L349,817L445,786Z" fill="#2b797e" stroke="#2b797e" stroke-width="1.51"/><path d="M594,1091L669,1015L584,989Z" fill="#18656c" stroke="#18656c" stroke-width="1.51"/><path d="M263,725L363,691L363,618Z" fill="#1d767f" stroke="#1d767f" stroke-width="1.51"/><path d="M252,584L363,618L362,516Z" fill="#256f75" stroke="#256f75" stroke-width="1.51"/><path d="M1173,904L1271,881L1256,808Z" fill="#317073" stroke="#317073" stroke-width="1.51"/><path d="M984,1025L1090,1026L1091,905Z" fill="#196c74" stroke="#196c74" stroke-width="1.51"/><path d="M854,0L782,109L861,85Z" fill="#419594" stroke="#419594" stroke-width="1.51"/><path d="M644,-3L544,78L675,84Z" fill="#278a8b" stroke="#278a8b" stroke-width="1.51"/><path d="M675,84L544,78L543,180Z" fill="#207e84" stroke="#207e84" stroke-width="1.51"/><path d="M1400,615L1368,508L1276,599Z" fill="#2a6e6e" stroke="#2a6e6e" stroke-width="1.51"/><path d="M1297,376L1365,307L1290,313Z" fill="#287578" stroke="#287578" stroke-width="1.51"/><path d="M1383,682L1276,599L1283,699Z" fill="#287576" stroke="#287576" stroke-width="1.51"/><path d="M357,80L381,219L449,179Z" fill="#277a84" stroke="#277a84" stroke-width="1.51"/><path d="M449,179L381,219L460,276Z" fill="#1f7882" stroke="#1f7882" stroke-width="1.51"/><path d="M962,87L854,0L861,85Z" fill="#358f8f" stroke="#358f8f" stroke-width="1.51"/><path d="M981,12L854,0L962,87Z" fill="#309190" stroke="#309190" stroke-width="1.51"/><path d="M1381,781L1383,682L1283,699Z" fill="#2a777b" stroke="#2a777b" stroke-width="1.51"/><path d="M1261,997L1271,881L1173,904Z" fill="#2b6d71" stroke="#2b6d71" stroke-width="1.51"/><path d="M669,1015L675,1092L773,980Z" fill="#266b70" stroke="#266b70" stroke-width="1.51"/><path d="M984,1025L1067,1082L1090,1026Z" fill="#196b73" stroke="#196b73" stroke-width="1.51"/><path d="M594,1091L675,1092L669,1015Z" fill="#19636a" stroke="#19636a" stroke-width="1.51"/><path d="M478,1005L584,989L474,905Z" fill="#196f78" stroke="#196f78" stroke-width="1.51"/><path d="M1156,91L1060,106L1155,195Z" fill="#21868e" stroke="#21868e" stroke-width="1.51"/><path d="M1060,106L981,12L962,87Z" fill="#25888b" stroke="#25888b" stroke-width="1.51"/><path d="M1290,313L1262,195L1193,312Z" fill="#2b7b7f" stroke="#2b7b7f" stroke-width="1.51"/><path d="M1364,179L1262,195L1290,313Z" fill="#307377" stroke="#307377" stroke-width="1.51"/><path d="M244,418L374,419L369,325Z" fill="#1b6c73" stroke="#1b6c73" stroke-width="1.51"/><path d="M244,418L256,490L374,419Z" fill="#2c757a" stroke="#2c757a" stroke-width="1.51"/><path d="M372,1005L478,1005L474,905Z" fill="#1d707a" stroke="#1d707a" stroke-width="1.51"/><path d="M256,490L252,584L362,516Z" fill="#357a7f" stroke="#357a7f" stroke-width="1.51"/><path d="M1262,195L1156,91L1155,195Z" fill="#2c7d84" stroke="#2c7d84" stroke-width="1.51"/><path d="M349,817L361,898L445,786Z" fill="#2d7277" stroke="#2d7277" stroke-width="1.51"/><path d="M240,885L361,898L349,817Z" fill="#2a6a73" stroke="#2a6a73" stroke-width="1.51"/><path d="M1381,781L1283,699L1256,808Z" fill="#367675" stroke="#367675" stroke-width="1.51"/><path d="M675,1092L762,1126L773,980Z" fill="#2c6f73" stroke="#2c6f73" stroke-width="1.51"/><path d="M744,-28L644,-3L675,84Z" fill="#379895" stroke="#379895" stroke-width="1.51"/><path d="M876,1129L984,1025L855,1002Z" fill="#24696f" stroke="#24696f" stroke-width="1.51"/><path d="M1368,508L1383,407L1274,477Z" fill="#367675" stroke="#367675" stroke-width="1.51"/><path d="M1477,421L1383,407L1368,508Z" fill="#2b6d71" stroke="#2b6d71" stroke-width="1.51"/><path d="M762,1126L876,1129L855,1002Z" fill="#327376" stroke="#327376" stroke-width="1.51"/><path d="M872,-87L744,-28L854,0Z" fill="#4ba9a1" stroke="#4ba9a1" stroke-width="1.51"/><path d="M854,0L744,-28L782,109Z" fill="#4ba39e" stroke="#4ba39e" stroke-width="1.51"/><path d="M1383,682L1400,615L1276,599Z" fill="#236d70" stroke="#236d70" stroke-width="1.51"/><path d="M252,584L263,725L363,618Z" fill="#1e737b" stroke="#1e737b" stroke-width="1.51"/><path d="M478,1005L594,1091L584,989Z" fill="#196b73" stroke="#196b73" stroke-width="1.51"/><path d="M675,1092L594,1091L762,1126Z" fill="#20676d" stroke="#20676d" stroke-width="1.51"/><path d="M1090,1026L1179,1020L1091,905Z" fill="#19737c" stroke="#19737c" stroke-width="1.51"/><path d="M976,1110L1067,1082L984,1025Z" fill="#18676f" stroke="#18676f" stroke-width="1.51"/><path d="M263,725L276,777L363,691Z" fill="#277981" stroke="#277981" stroke-width="1.51"/><path d="M544,78L472,74L543,180Z" fill="#20858d" stroke="#20858d" stroke-width="1.51"/><path d="M564,2L472,74L544,78Z" fill="#299497" stroke="#299497" stroke-width="1.51"/><path d="M1156,1092L1179,1020L1090,1026Z" fill="#1e727a" stroke="#1e727a" stroke-width="1.51"/><path d="M256,490L172,495L252,584Z" fill="#388386" stroke="#388386" stroke-width="1.51"/><path d="M256,277L244,418L369,325Z" fill="#1e777f" stroke="#1e777f" stroke-width="1.51"/><path d="M256,277L369,325L381,219Z" fill="#207781" stroke="#207781" stroke-width="1.51"/><path d="M1383,407L1365,307L1297,376Z" fill="#236f71" stroke="#236f71" stroke-width="1.51"/><path d="M471,-17L564,2L578,-81Z" fill="#31a2a0" stroke="#31a2a0" stroke-width="1.51"/><path d="M644,-3L564,2L544,78Z" fill="#2b9595" stroke="#2b9595" stroke-width="1.51"/><path d="M1156,91L1081,4L1060,106Z" fill="#279398" stroke="#279398" stroke-width="1.51"/><path d="M981,12L872,-87L854,0Z" fill="#3c9e99" stroke="#3c9e99" stroke-width="1.51"/><path d="M1161,15L1081,4L1156,91Z" fill="#2e9d9f" stroke="#2e9d9f" stroke-width="1.51"/><path d="M1350,894L1381,781L1256,808Z" fill="#366e6f" stroke="#366e6f" stroke-width="1.51"/><path d="M1383,682L1458,718L1400,615Z" fill="#1c6f77" stroke="#1c6f77" stroke-width="1.51"/><path d="M1350,894L1256,808L1271,881Z" fill="#346d6f" stroke="#346d6f" stroke-width="1.51"/><path d="M262,196L256,277L381,219Z" fill="#27737e" stroke="#27737e" stroke-width="1.51"/><path d="M1179,1020L1261,997L1173,904Z" fill="#286e74" stroke="#286e74" stroke-width="1.51"/><path d="M1254,1091L1261,997L1179,1020Z" fill="#2b6d72" stroke="#2b6d72" stroke-width="1.51"/><path d="M1261,997L1350,894L1271,881Z" fill="#2f696e" stroke="#2f696e" stroke-width="1.51"/><path d="M1266,82L1156,91L1262,195Z" fill="#328186" stroke="#328186" stroke-width="1.51"/><path d="M1266,82L1161,15L1156,91Z" fill="#349294" stroke="#349294" stroke-width="1.51"/><path d="M1254,1091L1156,1092L1387,1116Z" fill="#2f6b6f" stroke="#2f6b6f" stroke-width="1.51"/><path d="M976,1110L1156,1092L1067,1082Z" fill="#196d76" stroke="#196d76" stroke-width="1.51"/><path d="M1067,1082L1156,1092L1090,1026Z" fill="#19717a" stroke="#19717a" stroke-width="1.51"/><path d="M478,1005L457,1106L594,1091Z" fill="#197079" stroke="#197079" stroke-width="1.51"/><path d="M361,898L372,1005L474,905Z" fill="#206d77" stroke="#206d77" stroke-width="1.51"/><path d="M275,986L372,1005L361,898Z" fill="#246773" stroke="#246773" stroke-width="1.51"/><path d="M983,-92L981,12L1053,-101Z" fill="#309b99" stroke="#309b99" stroke-width="1.51"/><path d="M983,-92L872,-87L981,12Z" fill="#329994" stroke="#329994" stroke-width="1.51"/><path d="M578,-81L564,2L644,-3Z" fill="#309b99" stroke="#309b99" stroke-width="1.51"/><path d="M1364,179L1266,82L1262,195Z" fill="#35787c" stroke="#35787c" stroke-width="1.51"/><path d="M244,418L172,495L256,490Z" fill="#358185" stroke="#358185" stroke-width="1.51"/><path d="M252,584L163,612L263,725Z" fill="#1e7a81" stroke="#1e7a81" stroke-width="1.51"/><path d="M143,775L240,885L276,777Z" fill="#367a7e" stroke="#367a7e" stroke-width="1.51"/><path d="M175,374L172,495L244,418Z" fill="#2a7d81" stroke="#2a7d81" stroke-width="1.51"/><path d="M1365,307L1364,179L1290,313Z" fill="#2a757a" stroke="#2a757a" stroke-width="1.51"/><path d="M1461,189L1364,179L1365,307Z" fill="#286c75" stroke="#286c75" stroke-width="1.51"/><path d="M1485,804L1458,718L1381,781Z" fill="#2b6d72" stroke="#2b6d72" stroke-width="1.51"/><path d="M1381,781L1458,718L1383,682Z" fill="#267279" stroke="#267279" stroke-width="1.51"/><path d="M1493,515L1477,421L1368,508Z" fill="#337376" stroke="#337376" stroke-width="1.51"/><path d="M1383,407L1477,421L1365,307Z" fill="#1c686d" stroke="#1c686d" stroke-width="1.51"/><path d="M172,495L163,612L252,584Z" fill="#2c7e83" stroke="#2c7e83" stroke-width="1.51"/><path d="M276,777L240,885L349,817Z" fill="#317177" stroke="#317177" stroke-width="1.51"/><path d="M472,74L357,80L449,179Z" fill="#26858e" stroke="#26858e" stroke-width="1.51"/><path d="M341,12L357,80L472,74Z" fill="#309196" stroke="#309196" stroke-width="1.51"/><path d="M256,277L175,374L244,418Z" fill="#1e7a82" stroke="#1e7a82" stroke-width="1.51"/><path d="M284,98L262,196L381,219Z" fill="#2b737e" stroke="#2b737e" stroke-width="1.51"/><path d="M1053,-101L981,12L1081,4Z" fill="#309f9d" stroke="#309f9d" stroke-width="1.51"/><path d="M372,1005L457,1106L478,1005Z" fill="#1d6f79" stroke="#1d6f79" stroke-width="1.51"/><path d="M594,1091L457,1106L762,1126Z" fill="#18666d" stroke="#18666d" stroke-width="1.51"/><path d="M578,-81L644,-3L669,-117Z" fill="#2f9794" stroke="#2f9794" stroke-width="1.51"/><path d="M564,2L471,-17L472,74Z" fill="#2e9fa0" stroke="#2e9fa0" stroke-width="1.51"/><path d="M65,675L141,676L163,612Z" fill="#248a8f" stroke="#248a8f" stroke-width="1.51"/><path d="M144,317L175,374L256,277Z" fill="#20848c" stroke="#20848c" stroke-width="1.51"/><path d="M143,775L276,777L263,725Z" fill="#307f84" stroke="#307f84" stroke-width="1.51"/><path d="M372,1005L364,1130L457,1106Z" fill="#206c77" stroke="#206c77" stroke-width="1.51"/><path d="M1493,515L1368,508L1400,615Z" fill="#2c6f72" stroke="#2c6f72" stroke-width="1.51"/><path d="M1497,585L1493,515L1400,615Z" fill="#22686e" stroke="#22686e" stroke-width="1.51"/><path d="M756,-127L744,-28L872,-87Z" fill="#4eaba3" stroke="#4eaba3" stroke-width="1.51"/><path d="M669,-117L644,-3L744,-28Z" fill="#399c98" stroke="#399c98" stroke-width="1.51"/><path d="M1458,718L1497,585L1400,615Z" fill="#186970" stroke="#186970" stroke-width="1.51"/><path d="M983,-92L756,-127L872,-87Z" fill="#42a39c" stroke="#42a39c" stroke-width="1.51"/><path d="M756,-127L669,-117L744,-28Z" fill="#41a29c" stroke="#41a29c" stroke-width="1.51"/><path d="M163,612L141,676L263,725Z" fill="#20838b" stroke="#20838b" stroke-width="1.51"/><path d="M68,499L163,612L172,495Z" fill="#398c8e" stroke="#398c8e" stroke-width="1.51"/><path d="M1350,894L1485,804L1381,781Z" fill="#2f696e" stroke="#2f696e" stroke-width="1.51"/><path d="M1261,997L1351,994L1350,894Z" fill="#2d686d" stroke="#2d686d" stroke-width="1.51"/><path d="M1254,1091L1351,994L1261,997Z" fill="#306a6e" stroke="#306a6e" stroke-width="1.51"/><path d="M1150,-82L1053,-101L1081,4Z" fill="#31a5a4" stroke="#31a5a4" stroke-width="1.51"/><path d="M983,-92L1053,-101L756,-127Z" fill="#359a96" stroke="#359a96" stroke-width="1.51"/><path d="M1150,-82L1081,4L1161,15Z" fill="#34a7a6" stroke="#34a7a6" stroke-width="1.51"/><path d="M1156,1092L1254,1091L1179,1020Z" fill="#276f75" stroke="#276f75" stroke-width="1.51"/><path d="M1387,1116L1156,1092L976,1110Z" fill="#237077" stroke="#237077" stroke-width="1.51"/><path d="M240,885L275,986L361,898Z" fill="#266975" stroke="#266975" stroke-width="1.51"/><path d="M143,920L275,986L240,885Z" fill="#28717c" stroke="#28717c" stroke-width="1.51"/><path d="M156,217L144,317L256,277Z" fill="#25858e" stroke="#25858e" stroke-width="1.51"/><path d="M357,80L284,98L381,219Z" fill="#2b7a85" stroke="#2b7a85" stroke-width="1.51"/><path d="M341,12L284,98L357,80Z" fill="#328991" stroke="#328991" stroke-width="1.51"/><path d="M1495,923L1485,804L1350,894Z" fill="#25626c" stroke="#25626c" stroke-width="1.51"/><path d="M1458,718L1550,718L1497,585Z" fill="#196e77" stroke="#196e77" stroke-width="1.51"/><path d="M141,676L143,775L263,725Z" fill="#29878d" stroke="#29878d" stroke-width="1.51"/><path d="M1260,-114L1150,-82L1161,15Z" fill="#3da4a0" stroke="#3da4a0" stroke-width="1.51"/><path d="M1299,-6L1161,15L1266,82Z" fill="#3f9895" stroke="#3f9895" stroke-width="1.51"/><path d="M156,217L256,277L262,196Z" fill="#297b85" stroke="#297b85" stroke-width="1.51"/><path d="M68,371L68,499L172,495Z" fill="#399090" stroke="#399090" stroke-width="1.51"/><path d="M471,-17L341,12L472,74Z" fill="#329d9f" stroke="#329d9f" stroke-width="1.51"/><path d="M356,-126L341,12L471,-17Z" fill="#38a0a1" stroke="#38a0a1" stroke-width="1.51"/><path d="M491,-115L471,-17L578,-81Z" fill="#31a4a3" stroke="#31a4a3" stroke-width="1.51"/><path d="M1364,179L1397,110L1266,82Z" fill="#327a80" stroke="#327a80" stroke-width="1.51"/><path d="M1461,189L1397,110L1364,179Z" fill="#2b6f79" stroke="#2b6f79" stroke-width="1.51"/><path d="M1587,424L1477,421L1493,515Z" fill="#2a6d72" stroke="#2a6d72" stroke-width="1.51"/><path d="M1555,322L1496,277L1477,421Z" fill="#196c74" stroke="#196c74" stroke-width="1.51"/><path d="M1477,421L1496,277L1365,307Z" fill="#196d75" stroke="#196d75" stroke-width="1.51"/><path d="M1397,110L1299,-6L1266,82Z" fill="#3b8b8b" stroke="#3b8b8b" stroke-width="1.51"/><path d="M1496,277L1461,189L1365,307Z" fill="#1f6d78" stroke="#1f6d78" stroke-width="1.51"/><path d="M263,1094L364,1130L372,1005Z" fill="#246773" stroke="#246773" stroke-width="1.51"/><path d="M457,1106L364,1130L762,1126Z" fill="#196e76" stroke="#196e76" stroke-width="1.51"/><path d="M762,1126L364,1130L876,1129Z" fill="#1e666c" stroke="#1e666c" stroke-width="1.51"/><path d="M263,1094L372,1005L275,986Z" fill="#256873" stroke="#256873" stroke-width="1.51"/><path d="M756,-127L491,-115L669,-117Z" fill="#2e9693" stroke="#2e9693" stroke-width="1.51"/><path d="M669,-117L491,-115L578,-81Z" fill="#309d9b" stroke="#309d9b" stroke-width="1.51"/><path d="M186,71L156,217L262,196Z" fill="#2f818b" stroke="#2f818b" stroke-width="1.51"/><path d="M186,71L262,196L284,98Z" fill="#2f838d" stroke="#2f838d" stroke-width="1.51"/><path d="M1497,585L1572,582L1493,515Z" fill="#266a70" stroke="#266a70" stroke-width="1.51"/><path d="M1485,804L1550,718L1458,718Z" fill="#276f75" stroke="#276f75" stroke-width="1.51"/><path d="M1598,828L1550,718L1485,804Z" fill="#2e6c70" stroke="#2e6c70" stroke-width="1.51"/><path d="M1550,718L1572,582L1497,585Z" fill="#18676e" stroke="#18676e" stroke-width="1.51"/><path d="M68,371L175,374L144,317Z" fill="#23888d" stroke="#23888d" stroke-width="1.51"/><path d="M68,371L172,495L175,374Z" fill="#278185" stroke="#278185" stroke-width="1.51"/><path d="M141,676L65,675L143,775Z" fill="#299298" stroke="#299298" stroke-width="1.51"/><path d="M1572,582L1582,516L1493,515Z" fill="#2d6f73" stroke="#2d6f73" stroke-width="1.51"/><path d="M143,775L143,920L240,885Z" fill="#307a82" stroke="#307a82" stroke-width="1.51"/><path d="M42,585L65,675L163,612Z" fill="#278b8d" stroke="#278b8d" stroke-width="1.51"/><path d="M1587,424L1555,322L1477,421Z" fill="#18656b" stroke="#18656b" stroke-width="1.51"/><path d="M1496,277L1577,189L1461,189Z" fill="#246974" stroke="#246974" stroke-width="1.51"/><path d="M1351,994L1495,923L1350,894Z" fill="#25626c" stroke="#25626c" stroke-width="1.51"/><path d="M1494,1015L1495,923L1351,994Z" fill="#21606b" stroke="#21606b" stroke-width="1.51"/><path d="M73,824L143,920L143,775Z" fill="#378689" stroke="#378689" stroke-width="1.51"/><path d="M68,499L42,585L163,612Z" fill="#338e8e" stroke="#338e8e" stroke-width="1.51"/><path d="M63,325L68,371L144,317Z" fill="#289194" stroke="#289194" stroke-width="1.51"/><path d="M1582,516L1587,424L1493,515Z" fill="#347477" stroke="#347477" stroke-width="1.51"/><path d="M155,1029L263,1094L275,986Z" fill="#27707b" stroke="#27707b" stroke-width="1.51"/><path d="M-29,681L42,585L-42,586Z" fill="#2f9a96" stroke="#2f9a96" stroke-width="1.51"/><path d="M1299,-6L1260,-114L1161,15Z" fill="#43a19b" stroke="#43a19b" stroke-width="1.51"/><path d="M1397,110L1353,-28L1299,-6Z" fill="#3e9392" stroke="#3e9392" stroke-width="1.51"/><path d="M1476,-10L1353,-28L1397,110Z" fill="#388f91" stroke="#388f91" stroke-width="1.51"/><path d="M1472,97L1397,110L1461,189Z" fill="#28727d" stroke="#28727d" stroke-width="1.51"/><path d="M55,203L63,325L144,317Z" fill="#2c969b" stroke="#2c969b" stroke-width="1.51"/><path d="M341,12L246,12L284,98Z" fill="#379398" stroke="#379398" stroke-width="1.51"/><path d="M287,-82L246,12L341,12Z" fill="#3e9e9f" stroke="#3e9e9f" stroke-width="1.51"/><path d="M-42,586L42,585L-53,483Z" fill="#40a19b" stroke="#40a19b" stroke-width="1.51"/><path d="M55,203L144,317L156,217Z" fill="#2d8c93" stroke="#2d8c93" stroke-width="1.51"/><path d="M1577,189L1472,97L1461,189Z" fill="#276e79" stroke="#276e79" stroke-width="1.51"/><path d="M246,12L186,71L284,98Z" fill="#369399" stroke="#369399" stroke-width="1.51"/><path d="M143,920L155,1029L275,986Z" fill="#28757f" stroke="#28757f" stroke-width="1.51"/><path d="M65,675L73,824L143,775Z" fill="#379293" stroke="#379293" stroke-width="1.51"/><path d="M51,884L73,824L-19,784Z" fill="#409593" stroke="#409593" stroke-width="1.51"/><path d="M1353,-28L1260,-114L1299,-6Z" fill="#459d97" stroke="#459d97" stroke-width="1.51"/><path d="M1150,-82L1260,-114L1053,-101Z" fill="#38a6a4" stroke="#38a6a4" stroke-width="1.51"/><path d="M1053,-101L1260,-114L756,-127Z" fill="#309d9b" stroke="#309d9b" stroke-width="1.51"/><path d="M876,1129L1387,1116L976,1110Z" fill="#196f77" stroke="#196f77" stroke-width="1.51"/><path d="M1254,1091L1387,1116L1351,994Z" fill="#2c676d" stroke="#2c676d" stroke-width="1.51"/><path d="M1387,1116L1494,1015L1351,994Z" fill="#24626c" stroke="#24626c" stroke-width="1.51"/><path d="M1495,923L1598,828L1485,804Z" fill="#29656c" stroke="#29656c" stroke-width="1.51"/><path d="M90,1020L155,1029L143,920Z" fill="#2c7d86" stroke="#2c7d86" stroke-width="1.51"/><path d="M491,-115L356,-126L471,-17Z" fill="#35a5a5" stroke="#35a5a5" stroke-width="1.51"/><path d="M246,12L157,-29L186,71Z" fill="#3ea4a6" stroke="#3ea4a6" stroke-width="1.51"/><path d="M756,-127L356,-126L491,-115Z" fill="#31a2a0" stroke="#31a2a0" stroke-width="1.51"/><path d="M1599,902L1598,828L1495,923Z" fill="#24616c" stroke="#24616c" stroke-width="1.51"/><path d="M1550,718L1674,621L1572,582Z" fill="#186970" stroke="#186970" stroke-width="1.51"/><path d="M1572,582L1674,621L1582,516Z" fill="#22686e" stroke="#22686e" stroke-width="1.51"/><path d="M1582,516L1677,486L1587,424Z" fill="#317275" stroke="#317275" stroke-width="1.51"/><path d="M356,-126L287,-82L341,12Z" fill="#3c9b9d" stroke="#3c9b9d" stroke-width="1.51"/><path d="M73,824L51,884L143,920Z" fill="#34878b" stroke="#34878b" stroke-width="1.51"/><path d="M-19,784L73,824L65,675Z" fill="#3d9b99" stroke="#3d9b99" stroke-width="1.51"/><path d="M1472,97L1476,-10L1397,110Z" fill="#2e8288" stroke="#2e8288" stroke-width="1.51"/><path d="M1555,322L1577,189L1496,277Z" fill="#1f6e78" stroke="#1f6e78" stroke-width="1.51"/><path d="M1665,324L1577,189L1555,322Z" fill="#1d707a" stroke="#1d707a" stroke-width="1.51"/><path d="M46,92L156,217L186,71Z" fill="#349199" stroke="#349199" stroke-width="1.51"/><path d="M46,92L55,203L156,217Z" fill="#369197" stroke="#369197" stroke-width="1.51"/><path d="M42,585L68,499L-53,483Z" fill="#48a49d" stroke="#48a49d" stroke-width="1.51"/><path d="M1569,1020L1599,902L1495,923Z" fill="#21606b" stroke="#21606b" stroke-width="1.51"/><path d="M1663,778L1550,718L1598,828Z" fill="#2c6c71" stroke="#2c6c71" stroke-width="1.51"/><path d="M1705,708L1674,621L1550,718Z" fill="#197079" stroke="#197079" stroke-width="1.51"/><path d="M1587,424L1665,324L1555,322Z" fill="#186971" stroke="#186971" stroke-width="1.51"/><path d="M42,585L-29,681L65,675Z" fill="#2d9a99" stroke="#2d9a99" stroke-width="1.51"/><path d="M68,499L-45,413L-53,483Z" fill="#45a49e" stroke="#45a49e" stroke-width="1.51"/><path d="M1674,621L1677,486L1582,516Z" fill="#2c6e72" stroke="#2c6e72" stroke-width="1.51"/><path d="M1677,486L1671,424L1587,424Z" fill="#276b71" stroke="#276b71" stroke-width="1.51"/><path d="M68,499L68,371L-45,413Z" fill="#369794" stroke="#369794" stroke-width="1.51"/><path d="M1577,0L1476,-10L1472,97Z" fill="#348c90" stroke="#348c90" stroke-width="1.51"/><path d="M1353,-28L1369,-123L1260,-114Z" fill="#439c97" stroke="#439c97" stroke-width="1.51"/><path d="M51,884L90,1020L143,920Z" fill="#2f838a" stroke="#2f838a" stroke-width="1.51"/><path d="M155,1029L138,1110L263,1094Z" fill="#297580" stroke="#297580" stroke-width="1.51"/><path d="M-23,921L90,1020L51,884Z" fill="#358d90" stroke="#358d90" stroke-width="1.51"/><path d="M1476,-10L1369,-123L1353,-28Z" fill="#3c9695" stroke="#3c9695" stroke-width="1.51"/><path d="M1260,-114L1369,-123L756,-127Z" fill="#33a7a6" stroke="#33a7a6" stroke-width="1.51"/><path d="M-29,681L-19,784L65,675Z" fill="#35a6a5" stroke="#35a6a5" stroke-width="1.51"/><path d="M-23,921L-19,784L-143,894Z" fill="#3e9796" stroke="#3e9796" stroke-width="1.51"/><path d="M1691,914L1663,778L1598,828Z" fill="#2b666d" stroke="#2b666d" stroke-width="1.51"/><path d="M1691,209L1665,324L1671,424Z" fill="#197078" stroke="#197078" stroke-width="1.51"/><path d="M1671,424L1665,324L1587,424Z" fill="#17646b" stroke="#17646b" stroke-width="1.51"/><path d="M1577,189L1584,120L1472,97Z" fill="#28727c" stroke="#28727c" stroke-width="1.51"/><path d="M-45,413L68,371L63,325Z" fill="#2d9696" stroke="#2d9696" stroke-width="1.51"/><path d="M-56,280L-45,413L63,325Z" fill="#31a19f" stroke="#31a19f" stroke-width="1.51"/><path d="M1599,902L1691,914L1598,828Z" fill="#24626c" stroke="#24626c" stroke-width="1.51"/><path d="M1494,1015L1569,1020L1495,923Z" fill="#21606b" stroke="#21606b" stroke-width="1.51"/><path d="M1387,1116L1493,1112L1494,1015Z" fill="#21606b" stroke="#21606b" stroke-width="1.51"/><path d="M1691,209L1584,120L1577,189Z" fill="#266b76" stroke="#266b76" stroke-width="1.51"/><path d="M55,203L-56,280L63,325Z" fill="#33a0a1" stroke="#33a0a1" stroke-width="1.51"/><path d="M287,-82L157,-29L246,12Z" fill="#3fa5a6" stroke="#3fa5a6" stroke-width="1.51"/><path d="M182,-128L157,-29L287,-82Z" fill="#40a8a8" stroke="#40a8a8" stroke-width="1.51"/><path d="M90,1020L138,1110L155,1029Z" fill="#2c7d86" stroke="#2c7d86" stroke-width="1.51"/><path d="M263,1094L138,1110L364,1130Z" fill="#276d78" stroke="#276d78" stroke-width="1.51"/><path d="M1550,1080L1569,1020L1494,1015Z" fill="#21606b" stroke="#21606b" stroke-width="1.51"/><path d="M1663,778L1705,708L1550,718Z" fill="#247077" stroke="#247077" stroke-width="1.51"/><path d="M1674,621L1705,708L1677,486Z" fill="#17646a" stroke="#17646a" stroke-width="1.51"/><path d="M1677,486L1691,209L1671,424Z" fill="#18676e" stroke="#18676e" stroke-width="1.51"/><path d="M1691,914L1705,708L1663,778Z" fill="#306a6e" stroke="#306a6e" stroke-width="1.51"/><path d="M73,1L46,92L186,71Z" fill="#3fa8aa" stroke="#3fa8aa" stroke-width="1.51"/><path d="M1703,983L1691,914L1599,902Z" fill="#21606b" stroke="#21606b" stroke-width="1.51"/><path d="M1493,1112L1550,1080L1494,1015Z" fill="#21606b" stroke="#21606b" stroke-width="1.51"/><path d="M-117,395L-118,508L-53,483Z" fill="#44a49d" stroke="#44a49d" stroke-width="1.51"/><path d="M-48,188L-56,280L55,203Z" fill="#3b9e9f" stroke="#3b9e9f" stroke-width="1.51"/><path d="M90,1020L41,1079L138,1110Z" fill="#30848a" stroke="#30848a" stroke-width="1.51"/><path d="M-19,784L-23,921L51,884Z" fill="#3e9895" stroke="#3e9895" stroke-width="1.51"/><path d="M-141,726L-19,784L-29,681Z" fill="#3aa5a3" stroke="#3aa5a3" stroke-width="1.51"/><path d="M-119,590L-29,681L-42,586Z" fill="#2f9a96" stroke="#2f9a96" stroke-width="1.51"/><path d="M46,92L-48,188L55,203Z" fill="#3d9fa1" stroke="#3d9fa1" stroke-width="1.51"/><path d="M157,-29L73,1L186,71Z" fill="#41adad" stroke="#41adad" stroke-width="1.51"/><path d="M61,-122L73,1L157,-29Z" fill="#47b9b5" stroke="#47b9b5" stroke-width="1.51"/><path d="M356,-126L182,-128L287,-82Z" fill="#3ea0a1" stroke="#3ea0a1" stroke-width="1.51"/><path d="M756,-127L182,-128L356,-126Z" fill="#36a4a4" stroke="#36a4a4" stroke-width="1.51"/><path d="M1584,120L1577,0L1472,97Z" fill="#2d8087" stroke="#2d8087" stroke-width="1.51"/><path d="M1476,-10L1484,-127L1369,-123Z" fill="#389495" stroke="#389495" stroke-width="1.51"/><path d="M1665,324L1691,209L1577,189Z" fill="#216b76" stroke="#216b76" stroke-width="1.51"/><path d="M1705,708L1691,209L1677,486Z" fill="#2f7074" stroke="#2f7074" stroke-width="1.51"/><path d="M1697,86L1577,0L1584,120Z" fill="#2e8188" stroke="#2e8188" stroke-width="1.51"/><path d="M-53,483L-118,508L-42,586Z" fill="#48a69f" stroke="#48a69f" stroke-width="1.51"/><path d="M-117,395L-53,483L-45,413Z" fill="#3a9d98" stroke="#3a9d98" stroke-width="1.51"/><path d="M-118,508L-119,590L-42,586Z" fill="#3d9f9a" stroke="#3d9f9a" stroke-width="1.51"/><path d="M-42,99L-48,188L46,92Z" fill="#40a8a9" stroke="#40a8a9" stroke-width="1.51"/><path d="M-56,280L-117,395L-45,413Z" fill="#309d9a" stroke="#309d9a" stroke-width="1.51"/><path d="M-36,985L41,1079L90,1020Z" fill="#358e91" stroke="#358e91" stroke-width="1.51"/><path d="M1703,983L1599,902L1569,1020Z" fill="#21606b" stroke="#21606b" stroke-width="1.51"/><path d="M1369,-123L1484,-127L756,-127Z" fill="#3fa39f" stroke="#3fa39f" stroke-width="1.51"/><path d="M756,-127L1484,-127L182,-128Z" fill="#4faba3" stroke="#4faba3" stroke-width="1.51"/><path d="M1550,-127L1484,-127L1476,-10Z" fill="#389495" stroke="#389495" stroke-width="1.51"/><path d="M-118,508L-141,726L-119,590Z" fill="#2f9894" stroke="#2f9894" stroke-width="1.51"/><path d="M-140,323L-117,395L-56,280Z" fill="#31a2a0" stroke="#31a2a0" stroke-width="1.51"/><path d="M-23,921L-36,985L90,1020Z" fill="#379293" stroke="#379293" stroke-width="1.51"/><path d="M-143,894L-36,985L-23,921Z" fill="#389495" stroke="#389495" stroke-width="1.51"/><path d="M-163,200L-140,323L-56,280Z" fill="#36a4a4" stroke="#36a4a4" stroke-width="1.51"/><path d="M-34,21L-42,99L46,92Z" fill="#46b6b3" stroke="#46b6b3" stroke-width="1.51"/><path d="M-34,21L46,92L73,1Z" fill="#48bab6" stroke="#48bab6" stroke-width="1.51"/><path d="M-119,590L-141,726L-29,681Z" fill="#31a2a0" stroke="#31a2a0" stroke-width="1.51"/><path d="M-140,323L-141,726L-118,508Z" fill="#4aa8a1" stroke="#4aa8a1" stroke-width="1.51"/><path d="M1704,1118L1703,983L1569,1020Z" fill="#21606b" stroke="#21606b" stroke-width="1.51"/><path d="M1691,914L1703,983L1705,708Z" fill="#26636c" stroke="#26636c" stroke-width="1.51"/><path d="M-117,395L-140,323L-118,508Z" fill="#329894" stroke="#329894" stroke-width="1.51"/><path d="M-163,200L-56,280L-48,188Z" fill="#3b9e9f" stroke="#3b9e9f" stroke-width="1.51"/><path d="M1577,0L1550,-127L1476,-10Z" fill="#389495" stroke="#389495" stroke-width="1.51"/><path d="M1691,209L1697,86L1584,120Z" fill="#28717c" stroke="#28717c" stroke-width="1.51"/><path d="M1705,708L1697,86L1691,209Z" fill="#196d75" stroke="#196d75" stroke-width="1.51"/><path d="M1658,-104L1550,-127L1577,0Z" fill="#389495" stroke="#389495" stroke-width="1.51"/><path d="M1484,-127L1550,-127L182,-128Z" fill="#31a3a1" stroke="#31a3a1" stroke-width="1.51"/><path d="M-36,985L-13,1106L41,1079Z" fill="#389495" stroke="#389495" stroke-width="1.51"/><path d="M41,1079L-13,1106L138,1110Z" fill="#338a8e" stroke="#338a8e" stroke-width="1.51"/><path d="M138,1110L-163,1122L364,1130Z" fill="#2e8087" stroke="#2e8087" stroke-width="1.51"/><path d="M-145,1018L-13,1106L-36,985Z" fill="#389495" stroke="#389495" stroke-width="1.51"/><path d="M-141,726L-153,790L-19,784Z" fill="#41a29d" stroke="#41a29d" stroke-width="1.51"/><path d="M-140,323L-153,790L-141,726Z" fill="#2f9995" stroke="#2f9995" stroke-width="1.51"/><path d="M-128,90L-163,200L-48,188Z" fill="#3fa2a3" stroke="#3fa2a3" stroke-width="1.51"/><path d="M-45,-107L-34,21L73,1Z" fill="#50cbc1" stroke="#50cbc1" stroke-width="1.51"/><path d="M182,-128L61,-122L157,-29Z" fill="#44b2b0" stroke="#44b2b0" stroke-width="1.51"/><path d="M-153,790L-143,894L-19,784Z" fill="#449c97" stroke="#449c97" stroke-width="1.51"/><path d="M-128,90L-42,99L-34,21Z" fill="#46b6b3" stroke="#46b6b3" stroke-width="1.51"/><path d="M-128,90L-48,188L-42,99Z" fill="#40a9a9" stroke="#40a9a9" stroke-width="1.51"/><path d="M-140,323L-163,200L-153,790Z" fill="#3c9e99" stroke="#3c9e99" stroke-width="1.51"/><path d="M1550,1080L1704,1118L1569,1020Z" fill="#21606b" stroke="#21606b" stroke-width="1.51"/><path d="M1703,983L1704,1118L1705,708Z" fill="#21606b" stroke="#21606b" stroke-width="1.51"/><path d="M1493,1112L1704,1118L1550,1080Z" fill="#21606b" stroke="#21606b" stroke-width="1.51"/><path d="M1387,1116L1704,1118L1493,1112Z" fill="#21606b" stroke="#21606b" stroke-width="1.51"/><path d="M876,1129L1704,1118L1387,1116Z" fill="#2c676d" stroke="#2c676d" stroke-width="1.51"/><path d="M-116,-4L-128,90L-34,21Z" fill="#4bc0ba" stroke="#4bc0ba" stroke-width="1.51"/><path d="M1697,86L1702,-30L1577,0Z" fill="#358f92" stroke="#358f92" stroke-width="1.51"/><path d="M1705,708L1702,-30L1697,86Z" fill="#206d77" stroke="#206d77" stroke-width="1.51"/><path d="M1702,-30L1658,-104L1577,0Z" fill="#389495" stroke="#389495" stroke-width="1.51"/><path d="M-143,894L-145,1018L-36,985Z" fill="#389495" stroke="#389495" stroke-width="1.51"/><path d="M-163,1122L-145,1018L-143,894Z" fill="#389495" stroke="#389495" stroke-width="1.51"/><path d="M61,-122L-45,-107L73,1Z" fill="#4ec5bd" stroke="#4ec5bd" stroke-width="1.51"/><path d="M-45,-107L-116,-4L-34,21Z" fill="#50cbc1" stroke="#50cbc1" stroke-width="1.51"/><path d="M-128,90L-122,-96L-163,200Z" fill="#47b8b4" stroke="#47b8b4" stroke-width="1.51"/><path d="M-145,1018L-163,1122L-13,1106Z" fill="#389495" stroke="#389495" stroke-width="1.51"/><path d="M-13,1106L-163,1122L138,1110Z" fill="#389495" stroke="#389495" stroke-width="1.51"/><path d="M-153,790L-163,1122L-143,894Z" fill="#389495" stroke="#389495" stroke-width="1.51"/><path d="M-163,200L-163,1122L-153,790Z" fill="#33a7a7" stroke="#33a7a7" stroke-width="1.51"/><path d="M-45,-107L-122,-96L-116,-4Z" fill="#50cbc1" stroke="#50cbc1" stroke-width="1.51"/><path d="M-116,-4L-122,-96L-128,90Z" fill="#50cbc1" stroke="#50cbc1" stroke-width="1.51"/></svg>